<?xml version="1.0" encoding="utf-8"?>
<!-- Generator: Adobe Illustrator 17.1.0, SVG Export Plug-In . SVG Version: 6.00 Build 0)  -->
<svg version="1.2" baseProfile="tiny" id="Layer_1" xmlns="http://www.w3.org/2000/svg" xmlns:xlink="http://www.w3.org/1999/xlink"
	 x="0px" y="0px" viewBox="0 0 300 300" xml:space="preserve">
<path fill="#020202" d="M270,157H30c-3.9,0-7-3.1-7-7s3.1-7,7-7h240c3.9,0,7,3.1,7,7S273.9,157,270,157z"/>
<path fill="#020202" d="M270,63H30c-3.9,0-7-3.1-7-7s3.1-7,7-7h240c3.9,0,7,3.1,7,7S273.9,63,270,63z"/>
<path fill="#020202" d="M270,251H30c-3.9,0-7-3.1-7-7s3.1-7,7-7h240c3.9,0,7,3.1,7,7S273.9,251,270,251z"/>
</svg>
