<?xml version="1.0" encoding="utf-8"?>
<!-- Generator: Adobe Illustrator 17.1.0, SVG Export Plug-In . SVG Version: 6.00 Build 0)  -->
<!DOCTYPE svg PUBLIC "-//W3C//DTD SVG 1.1//EN" "http://www.w3.org/Graphics/SVG/1.1/DTD/svg11.dtd">
<svg version="1.1" id="Layer_1" xmlns="http://www.w3.org/2000/svg" xmlns:xlink="http://www.w3.org/1999/xlink" x="0px" y="0px"
	 viewBox="0 0 32 32" enable-background="new 0 0 32 32" xml:space="preserve">
<path id="github" d="M16,26c-0.6,0-1.2-0.3-1.8-0.9c-0.2-0.2-0.2-0.6,0-0.9s0.6-0.2,0.9,0c0.4,0.4,0.7,0.6,0.9,0.6s0.6-0.2,0.9-0.6
	c0.2-0.2,0.6-0.2,0.9,0s0.2,0.6,0,0.9C17.2,25.7,16.6,26,16,26z M0,16.4c0,1.6,0.1,3,0.4,4.2S1,23,1.5,24s1.1,1.7,1.8,2.4
	s1.5,1.3,2.4,1.7c0.9,0.5,1.9,0.8,3,1.1s2.3,0.5,3.4,0.6S14.6,30,16,30s2.7-0.1,3.8-0.2s2.3-0.3,3.4-0.6c1.1-0.3,2.1-0.6,3-1.1
	s1.7-1,2.4-1.7s1.4-1.5,1.8-2.4s0.9-2,1.1-3.3S32,18,32,16.4c0-2.8-0.9-5.2-2.6-7.2c0.1-0.3,0.2-0.6,0.3-0.9s0.1-0.8,0.2-1.5
	c0.1-0.6,0-1.4-0.1-2.2s-0.3-1.7-0.7-2.5L28.9,2c-0.2,0-0.4,0-0.8,0c-0.4,0.1-0.8,0.2-1.3,0.3s-1.2,0.4-2,0.9s-1.6,1-2.5,1.6
	c-1.5-0.5-3.6-0.9-6.3-0.9s-4.7,0.5-6.3,0.9C8.8,4.2,8,3.7,7.2,3.2S5.7,2.5,5.3,2.4S4.3,2.1,3.9,2.1S3.2,2,3.1,2S2.9,2,2.9,2.1
	C2.5,2.9,2.3,3.8,2.2,4.6S2,6.2,2.1,6.8c0.1,0.6,0.1,1.1,0.2,1.5s0.2,0.7,0.3,0.9C0.9,11.2,0,13.6,0,16.4L0,16.4z M4.3,20
	c0-1.8,0.7-3.5,2-4.9c0.4-0.4,0.9-0.8,1.4-1s1.1-0.4,1.8-0.4s1.3,0,1.9,0s1.4,0.1,2.3,0.2s1.7,0.1,2.3,0.1s1.4,0,2.3-0.1
	s1.7-0.1,2.3-0.2c0.6,0,1.3-0.1,1.9,0s1.3,0.2,1.8,0.4s1,0.6,1.4,1c1.3,1.5,2,3.1,2,4.9c0,1.1-0.1,2-0.3,2.8s-0.5,1.5-0.8,2.1
	c-0.3,0.6-0.8,1-1.4,1.4s-1.2,0.7-1.8,0.9s-1.3,0.4-2.2,0.5s-1.7,0.2-2.4,0.2c-0.7,0-1.6,0-2.7,0s-2,0-2.7,0c-0.7,0-1.5-0.1-2.4-0.2
	s-1.6-0.3-2.2-0.5c-0.6-0.2-1.2-0.5-1.8-0.9s-1.1-0.9-1.4-1.4s-0.6-1.3-0.8-2.1S4.3,21,4.3,20z M8,19c0-1.7,0.9-3,2-3s2,1.3,2,3
	s-0.9,3-2,3S8,20.7,8,19z M20,19c0-1.7,0.9-3,2-3s2,1.3,2,3s-0.9,3-2,3S20,20.7,20,19z"/>
</svg>
