<?xml version="1.0" encoding="utf-8"?>
<!-- Generator: Adobe Illustrator 17.1.0, SVG Export Plug-In . SVG Version: 6.00 Build 0)  -->
<!DOCTYPE svg PUBLIC "-//W3C//DTD SVG 1.1//EN" "http://www.w3.org/Graphics/SVG/1.1/DTD/svg11.dtd">
<svg version="1.1" id="Layer_1" xmlns="http://www.w3.org/2000/svg" xmlns:xlink="http://www.w3.org/1999/xlink" x="0px" y="0px"
	 viewBox="0 0 32 32" enable-background="new 0 0 32 32" xml:space="preserve">
<path d="M24,8.3h-4.3c1.5,1,2.9,2.8,3.3,4H24c2,0,4,2,4,4s-2,4-4,4h-6c-2,0-4-2-4-4c0-0.7,0.2-1.4,0.6-2h-4.3
	c-0.2,0.7-0.3,1.3-0.3,2c0,4,4,8,8,8s2,0,6,0s8-4,8-8S28,8.3,24,8.3z M9,20.3H8c-2,0-4-2-4-4s2-4,4-4h6c2,0,4,2,4,4
	c0,0.7-0.2,1.4-0.6,2h4.3c0.2-0.7,0.3-1.3,0.3-2c0-4-4-8-8-8s-2,0-6,0s-8,4-8,8s4,8,8,8h4.3C10.8,23.3,9.4,21.6,9,20.3z"/>
</svg>
