<svg xmlns="http://www.w3.org/2000/svg" xmlns:xlink="http://www.w3.org/1999/xlink" id="character">
	<g>
		<polygon fill="#383838" points="191.7,16.7 191.7,0 108.3,0 108.3,16.7 91.7,16.7 91.7,83.3 108.3,83.3 108.3,50 125,50 125,33.3 141.7,33.3 141.7,16.7 158.3,16.7 158.3,33.3 175,33.3 175,50 191.7,50 191.7,83.3 208.3,83.3 208.3,16.7"/>
		<polygon fill="#020202" points="125,83.3 125,100 141.7,100 141.7,83.3 141.7,66.7 125,66.7"/>
		<polygon fill="#020202" points="158.3,66.7 158.3,83.3 158.3,100 175,100 175,83.3 175,66.7"/>
		<path fill="#FAB780" d="M191.7,83.3V50H175V33.3h-16.7V16.7h-16.7v16.7H125V50h-16.7v33.3H91.7V100h16.7v33.3H125V150h16.7v16.7h16.7V150H175v-16.7h16.7V100h16.7V83.3H191.7z M125,66.7h16.7V100H125V66.7z M158.3,100V66.7H175V100H158.3z"/>
		<rect x="191.7" y="216.7" fill="#FAB780" width="16.7" height="16.7"/>
		<rect x="91.7" y="216.7" fill="#FAB780" width="16.7" height="16.7"/>
		<rect x="158.3" y="150" fill="#2D4921" width="16.7" height="16.7"/>
		<polygon fill="#2D4921" points="175,166.7 175,183.3 158.3,183.3 158.3,200 141.7,200 141.7,216.7 125,216.7 125,233.3 175,233.3 175,216.7 208.3,216.7 208.3,166.7"/>
		<polygon fill="#2D4921" points="141.7,200 141.7,183.3 158.3,183.3 158.3,166.7 141.7,166.7 141.7,150 108.3,150 108.3,166.7 91.7,166.7 91.7,216.7 125,216.7 125,200"/>
		<rect x="175" y="150" width="16.7" height="16.7"/>
		<rect x="158.3" y="166.7" width="16.7" height="16.7"/>
		<rect x="141.7" y="183.3" width="16.7" height="16.7"/>
		<rect x="125" y="200" width="16.7" height="16.7"/>
		<rect x="108.3" y="216.7" width="16.7" height="50"/>
		<rect x="125" y="233.3" fill="#3967A0" width="16.7" height="50"/>
		<rect x="158.3" y="233.3" fill="#3967A0" width="16.7" height="50"/>
		<rect x="125" y="283.3" fill="#673915" width="16.7" height="16.7"/>
		<rect x="158.3" y="283.3" fill="#673915" width="16.7" height="16.7"/>
	</g>
</svg>
