<?xml version="1.0" encoding="utf-8"?>
<!-- Generator: Adobe Illustrator 17.1.0, SVG Export Plug-In . SVG Version: 6.00 Build 0)  -->
<svg version="1.2" baseProfile="tiny" id="Layer_1" xmlns="http://www.w3.org/2000/svg" xmlns:xlink="http://www.w3.org/1999/xlink"
	 x="0px" y="0px" viewBox="0 0 300 300" xml:space="preserve">
<polyline fill="none" stroke="#000000" stroke-width="24" stroke-linecap="round" stroke-linejoin="round" stroke-miterlimit="10" points="
	188.4,67.7 96.2,150 188.4,232 "/>
<path d="M150,26.2c33.1,0,64.2,12.9,87.5,36.3c23.4,23.4,36.3,54.5,36.3,87.5c0,33.1-12.9,64.2-36.3,87.5
	c-23.4,23.4-54.5,36.3-87.5,36.3c-33.1,0-64.2-12.9-87.5-36.3c-23.4-23.4-36.3-54.5-36.3-87.5c0-33.1,12.9-64.2,36.3-87.5
	S116.9,26.2,150,26.2 M150,2.2C68.4,2.2,2.2,68.4,2.2,150c0,81.6,66.2,147.8,147.8,147.8c81.6,0,147.8-66.2,147.8-147.8
	C297.8,68.4,231.6,2.2,150,2.2L150,2.2z"/>
</svg>
