<?xml version="1.0" encoding="utf-8"?>
<!-- Generator: Adobe Illustrator 17.1.0, SVG Export Plug-In . SVG Version: 6.00 Build 0)  -->
<svg version="1.2" baseProfile="tiny" xmlns="http://www.w3.org/2000/svg" xmlns:xlink="http://www.w3.org/1999/xlink" x="0px"
	 y="0px" viewBox="0 0 315 810" overflow="scroll" xml:space="preserve">
<g id="Layer_2">
	<linearGradient id="SVGID_1_" gradientUnits="userSpaceOnUse" x1="157.5" y1="810" x2="157.5" y2="-7.071321e-009">
		<stop  offset="0" style="stop-color:#898989"/>
		<stop  offset="1" style="stop-color:#303030"/>
	</linearGradient>
	<rect fill="url(#SVGID_1_)" width="315" height="810"/>
</g>
<g id="Layer_1">
	<rect x="90" fill="#383838" width="45" height="45"/>
	<rect x="135" fill="#383838" width="45" height="45"/>
	<rect x="180" fill="#383838" width="45" height="45"/>
	<rect x="45" y="45" fill="#383838" width="45" height="45"/>
	<rect x="45" fill="#383838" width="45" height="45"/>
	<rect x="90" y="45" fill="#383838" width="45" height="45"/>
	<rect x="135" y="45" fill="#FAB780" width="45" height="45"/>
	<rect x="180" y="45" fill="#383838" width="45" height="45"/>
	<rect x="225" y="45" fill="#383838" width="45" height="45"/>
	<rect x="225" fill="#383838" width="45" height="45"/>
	<rect y="90" fill="#383838" width="45" height="45"/>
	<rect x="45" y="90" fill="#383838" width="45" height="45"/>
	<rect x="90" y="90" fill="#FAB780" width="45" height="45"/>
	<rect x="135" y="90" fill="#FAB780" width="45" height="45"/>
	<rect x="180" y="90" fill="#FAB780" width="45" height="45"/>
	<rect x="225" y="90" fill="#383838" width="45" height="45"/>
	<rect x="270" y="90" fill="#383838" width="45" height="45"/>
	<rect y="45" fill="#383838" width="45" height="45"/>
	<rect x="270" y="45" fill="#383838" width="45" height="45"/>
	<rect y="135" fill="#383838" width="45" height="45"/>
	<rect x="45" y="135" fill="#FAB780" width="45" height="45"/>
	<rect x="90" y="135" fill="#FAB780" width="45" height="45"/>
	<rect x="135" y="135" fill="#FAB780" width="45" height="45"/>
	<rect x="180" y="135" fill="#FAB780" width="45" height="45"/>
	<rect x="225" y="135" fill="#FAB780" width="45" height="45"/>
	<rect x="270" y="135" fill="#383838" width="45" height="45"/>
	<rect y="180" fill="#383838" width="45" height="45"/>
	<rect x="45" y="180" fill="#FAB780" width="45" height="45"/>
	<rect x="90" y="180" fill="#020202" width="45" height="45"/>
	<rect x="135" y="180" fill="#FAB780" width="45" height="45"/>
	<rect x="180" y="180" fill="#020202" width="45" height="45"/>
	<rect x="225" y="180" fill="#FAB780" width="45" height="45"/>
	<rect x="270" y="180" fill="#383838" width="45" height="45"/>
	<rect y="225" fill="#FAB780" width="45" height="45"/>
	<rect x="45" y="225" fill="#FAB780" width="45" height="45"/>
	<rect x="90" y="225" fill="#020202" width="45" height="45"/>
	<rect x="135" y="225" fill="#FAB780" width="45" height="45"/>
	<rect x="180" y="225" fill="#020202" width="45" height="45"/>
	<rect x="225" y="225" fill="#FAB780" width="45" height="45"/>
	<rect x="270" y="225" fill="#FAB780" width="45" height="45"/>
	<rect x="45" y="270" fill="#FAB780" width="45" height="45"/>
	<rect x="90" y="270" fill="#FAB780" width="45" height="45"/>
	<rect x="135" y="270" fill="#FAB780" width="45" height="45"/>
	<rect x="180" y="270" fill="#FAB780" width="45" height="45"/>
	<rect x="225" y="270" fill="#FAB780" width="45" height="45"/>
	<rect x="45" y="315" fill="#FAB780" width="45" height="45"/>
	<rect x="90" y="315" fill="#FAB780" width="45" height="45"/>
	<rect x="135" y="315" fill="#FAB780" width="45" height="45"/>
	<rect x="180" y="315" fill="#FAB780" width="45" height="45"/>
	<rect x="225" y="315" fill="#FAB780" width="45" height="45"/>
	<rect x="90" y="360" fill="#FAB780" width="45" height="45"/>
	<rect x="135" y="360" fill="#FAB780" width="45" height="45"/>
	<rect x="180" y="360" fill="#FAB780" width="45" height="45"/>
	<rect x="45" y="405" fill="#2D4921" width="45" height="45"/>
	<rect x="90" y="405" fill="#2D4921" width="45" height="45"/>
	<rect x="135" y="405" fill="#FAB780" width="45" height="45"/>
	<rect x="180" y="405" fill="#2D4921" width="45" height="45"/>
	<rect x="225" y="405" width="45" height="45"/>
	<rect y="450" fill="#2D4921" width="45" height="45"/>
	<rect x="45" y="450" fill="#2D4921" width="45" height="45"/>
	<rect x="90" y="450" fill="#2D4921" width="45" height="45"/>
	<rect x="135" y="450" fill="#2D4921" width="45" height="45"/>
	<rect x="180" y="450" width="45" height="45"/>
	<rect x="225" y="450" fill="#2D4921" width="45" height="45"/>
	<rect x="270" y="450" fill="#2D4921" width="45" height="45"/>
	<rect y="495" fill="#2D4921" width="45" height="45"/>
	<rect x="45" y="495" fill="#2D4921" width="45" height="45"/>
	<rect x="90" y="495" fill="#2D4921" width="45" height="45"/>
	<rect x="135" y="495" width="45" height="45"/>
	<rect x="180" y="495" fill="#2D4921" width="45" height="45"/>
	<rect x="225" y="495" fill="#2D4921" width="45" height="45"/>
	<rect x="270" y="495" fill="#2D4921" width="45" height="45"/>
	<rect y="540" fill="#2D4921" width="45" height="45"/>
	<rect x="45" y="540" fill="#2D4921" width="45" height="45"/>
	<rect x="90" y="540" width="45" height="45"/>
	<rect x="135" y="540" fill="#2D4921" width="45" height="45"/>
	<rect x="180" y="540" fill="#2D4921" width="45" height="45"/>
	<rect x="225" y="540" fill="#2D4921" width="45" height="45"/>
	<rect x="270" y="540" fill="#2D4921" width="45" height="45"/>
	<rect x="270" y="585" fill="#FAB780" width="45" height="45"/>
	<rect y="585" fill="#FAB780" width="45" height="45"/>
	<rect x="45" y="585" width="45" height="45"/>
	<rect x="90" y="585" fill="#2D4921" width="45" height="45"/>
	<rect x="135" y="585" fill="#2D4921" width="45" height="45"/>
	<rect x="180" y="585" fill="#2D4921" width="45" height="45"/>
	<rect x="45" y="630" width="45" height="45"/>
	<rect x="90" y="630" fill="#3967A0" width="45" height="45"/>
	<rect x="180" y="630" fill="#3967A0" width="45" height="45"/>
	<rect x="45" y="675" width="45" height="45"/>
	<rect x="90" y="675" fill="#3967A0" width="45" height="45"/>
	<rect x="180" y="675" fill="#3967A0" width="45" height="45"/>
	<rect x="90" y="720" fill="#3967A0" width="45" height="45"/>
	<rect x="180" y="720" fill="#3967A0" width="45" height="45"/>
	<rect x="90" y="765" fill="#673915" width="45" height="45"/>
	<rect x="180" y="765" fill="#673915" width="45" height="45"/>
</g>
</svg>
